<svg width="205" height="78" viewBox="0 0 205 78" fill="none" xmlns="http://www.w3.org/2000/svg">
<path d="M33.6 15.1114C34.5813 15.1114 35.3067 15.1541 35.776 15.2394C36.288 15.2821 36.8427 15.4741 37.44 15.8154C38.08 16.1568 38.528 16.7328 38.784 17.5434C39.04 18.3541 39.168 19.4421 39.168 20.8074C39.168 22.1728 39.04 23.2608 38.784 24.0714C38.528 24.8821 38.08 25.4581 37.44 25.7994C36.8 26.0981 36.224 26.2901 35.712 26.3754C35.2427 26.4181 34.496 26.4394 33.472 26.4394H13.888V32.9034H26.496C27.52 32.9034 28.2667 32.9461 28.736 33.0314C29.248 33.0741 29.824 33.2661 30.464 33.6074C31.5733 34.2474 32.128 35.9328 32.128 38.6634C32.128 41.6501 31.3173 43.4208 29.696 43.9754C29.0133 44.1888 27.9253 44.2954 26.432 44.2954H13.888V56.3914C13.888 57.4154 13.8453 58.1621 13.76 58.6314C13.7173 59.1008 13.5253 59.6554 13.184 60.2954C12.5867 61.4474 10.9227 62.0234 8.192 62.0234C5.20533 62.0234 3.456 61.2128 2.944 59.5914C2.688 58.9088 2.56 57.8208 2.56 56.3274V20.7434C2.56 18.5674 2.96533 17.0954 3.776 16.3274C4.58667 15.5168 6.12267 15.1114 8.384 15.1114H33.6Z" fill="#0E9AFF"/>
<path d="M118.872 49.7354L120.024 48.9034C121.475 48.0501 122.499 47.6234 123.096 47.6234C124.419 47.6234 125.848 48.8181 127.384 51.2074C128.323 52.7008 128.792 53.8954 128.792 54.7914C128.792 55.6874 128.493 56.4341 127.896 57.0314C127.341 57.6288 126.68 58.1621 125.912 58.6314C125.144 59.1008 124.397 59.5488 123.672 59.9754C122.989 60.4021 121.56 60.9568 119.384 61.6394C117.208 62.3221 115.096 62.6634 113.048 62.6634C111.043 62.6634 108.995 62.4074 106.904 61.8954C104.856 61.3408 102.723 60.4448 100.504 59.2074C98.328 57.9274 96.3653 56.3914 94.616 54.5994C92.8667 52.7648 91.416 50.4394 90.264 47.6234C89.1547 44.7648 88.6 41.6714 88.6 38.3434C88.6 35.0154 89.1547 32.0074 90.264 29.3194C91.3733 26.5888 92.7813 24.3488 94.488 22.5994C96.2373 20.8074 98.2213 19.3141 100.44 18.1194C104.621 15.8154 108.824 14.6634 113.048 14.6634C115.053 14.6634 117.08 14.9834 119.128 15.6234C121.219 16.2208 122.797 16.8394 123.864 17.4794L125.4 18.3754C126.168 18.8448 126.765 19.2288 127.192 19.5274C128.301 20.4234 128.856 21.4474 128.856 22.5994C128.856 23.7088 128.408 24.8821 127.512 26.1194C125.848 28.4234 124.355 29.5754 123.032 29.5754C122.264 29.5754 121.176 29.1061 119.768 28.1674C117.976 26.7168 115.587 25.9914 112.6 25.9914C109.827 25.9914 107.096 26.9514 104.408 28.8714C103.128 29.8101 102.061 31.1328 101.208 32.8394C100.355 34.5461 99.928 36.4874 99.928 38.6634C99.928 40.7968 100.355 42.7168 101.208 44.4234C102.061 46.1301 103.149 47.4741 104.472 48.4554C107.075 50.3328 109.784 51.2714 112.6 51.2714C113.923 51.2714 115.16 51.1008 116.312 50.7594C117.507 50.4181 118.36 50.0768 118.872 49.7354Z" fill="#FFA012"/>
<path d="M81.312 28.2954C85.5787 28.2954 89.12 29.9381 91.936 33.2234C94.7947 36.4661 96.224 40.4341 96.224 45.1274V56.3914C96.224 57.3728 96.1813 58.1194 96.096 58.6314C96.0533 59.1008 95.8827 59.6341 95.584 60.2314C94.9867 61.3834 93.3227 61.9594 90.592 61.9594C87.5627 61.9594 85.8133 61.1701 85.344 59.5914C85.088 58.8661 84.96 57.7781 84.96 56.3274V45.0634C84.96 43.3141 84.448 41.9488 83.424 40.9674C82.4427 39.9861 81.0987 39.4954 79.392 39.4954C77.728 39.4954 76.3627 40.0074 75.296 41.0314C74.272 42.0554 73.76 43.3994 73.76 45.0634V56.3914C73.76 57.3728 73.7173 58.1194 73.632 58.6314C73.5893 59.1008 73.3973 59.6341 73.056 60.2314C72.5013 61.3834 70.8587 61.9594 68.128 61.9594C65.44 61.9594 63.7973 61.3834 63.2 60.2314C62.9013 59.5914 62.7093 59.0368 62.624 58.5674C62.5813 58.0554 62.56 57.3088 62.56 56.3274V33.6714C62.56 32.7328 62.5813 32.0288 62.624 31.5594C62.7093 31.0474 62.9227 30.4928 63.264 29.8954C63.8613 28.8288 65.504 28.2954 68.192 28.2954C70.7947 28.2954 72.3947 28.7861 72.992 29.7674C73.4187 30.4928 73.632 31.3674 73.632 32.3914C73.8027 32.0928 74.1867 31.6661 74.784 31.1114C75.3813 30.5568 75.9573 30.1088 76.512 29.7674C77.9627 28.7861 79.5627 28.2954 81.312 28.2954Z" fill="#9CC624"/>
<path d="M49.536 61.8954C45.2267 61.8954 41.6427 60.2741 38.784 57.0314C35.968 53.7461 34.56 49.7568 34.56 45.0634V33.8634C34.56 32.8394 34.5813 32.0928 34.624 31.6234C34.7093 31.1541 34.9013 30.5994 35.2 29.9594C35.7973 28.8074 37.4613 28.2314 40.192 28.2314C43.1787 28.2314 44.928 29.0421 45.44 30.6634C45.696 31.3461 45.824 32.4341 45.824 33.9274V45.1274C45.824 46.8768 46.3147 48.2421 47.296 49.2234C48.32 50.2048 49.664 50.6954 51.328 50.6954C53.0347 50.6954 54.4 50.1834 55.424 49.1594C56.4907 48.1354 57.024 46.7914 57.024 45.1274V33.7994C57.024 32.8181 57.0453 32.0928 57.088 31.6234C57.1733 31.1114 57.3867 30.5354 57.728 29.8954C58.2827 28.7861 59.9253 28.2314 62.656 28.2314C65.344 28.2314 66.9867 28.8074 67.584 29.9594C67.8827 30.5994 68.0533 31.1754 68.096 31.6874C68.1813 32.1568 68.224 32.8821 68.224 33.8634V56.5194C68.224 57.4581 68.1813 58.1834 68.096 58.6954C68.0533 59.1648 67.8613 59.6981 67.52 60.2954C66.88 61.4048 65.2373 61.9594 62.592 61.9594C59.9893 61.9594 58.3893 61.4474 57.792 60.4234C57.3653 59.6981 57.152 58.8234 57.152 57.7994C56.9813 58.0981 56.5973 58.5248 56 59.0794C55.4027 59.6341 54.8267 60.1034 54.272 60.4874C52.8213 61.4261 51.2427 61.8954 49.536 61.8954Z" fill="#03CB8F"/>
<path d="M174.472 28.6794C175.283 28.9354 175.944 29.3834 176.456 30.0234C177.011 30.6208 177.288 31.6021 177.288 32.9674C177.288 34.3328 176.883 35.8261 176.072 37.4474C175.261 39.0688 174.088 39.8794 172.552 39.8794C171.784 39.8794 171.037 39.7088 170.312 39.3674C169.629 39.0261 168.712 38.8554 167.56 38.8554C166.408 38.8554 165.32 39.2608 164.296 40.0714C163.315 40.8821 162.824 41.8634 162.824 43.0154V56.4554C162.824 57.4368 162.781 58.1834 162.696 58.6954C162.653 59.1648 162.461 59.7194 162.12 60.3594C161.48 61.4688 159.816 62.0234 157.128 62.0234C155.08 62.0234 153.608 61.6608 152.712 60.9354C152.029 60.3381 151.645 59.4208 151.56 58.1834C151.56 57.7568 151.56 57.1381 151.56 56.3274V33.8634C151.56 32.8821 151.581 32.1568 151.624 31.6874C151.709 31.1754 151.901 30.6208 152.2 30.0234C152.797 28.8714 154.461 28.2954 157.192 28.2954C159.752 28.2954 161.352 28.7861 161.992 29.7674C162.461 30.4501 162.696 31.1541 162.696 31.8794C162.909 31.5808 163.208 31.2181 163.592 30.7914C164.019 30.3648 164.893 29.7888 166.216 29.0634C167.539 28.3381 168.691 27.9754 169.672 27.9754C170.696 27.9754 171.549 28.0394 172.232 28.1674C172.915 28.2528 173.661 28.4234 174.472 28.6794Z" fill="#FE4848"/>
<path d="M145.448 31.8794C145.704 29.4901 147.389 28.2954 150.504 28.2954C152.168 28.2954 153.405 28.4234 154.216 28.6794C155.027 28.9354 155.581 29.3834 155.88 30.0234C156.221 30.6634 156.413 31.2394 156.456 31.7514C156.541 32.2208 156.584 32.9461 156.584 33.9274V56.3274C156.584 57.3088 156.541 58.0554 156.456 58.5674C156.413 59.0368 156.243 59.5914 155.944 60.2314C155.347 61.3408 153.875 61.8954 151.528 61.8954C149.224 61.8954 147.667 61.6181 146.856 61.0634C146.088 60.4661 145.64 59.6128 145.512 58.5034C143.933 60.7648 141.288 61.8954 137.576 61.8954C133.907 61.8954 130.493 60.2101 127.336 56.8394C124.179 53.4688 122.6 49.5648 122.6 45.1274C122.6 40.6474 124.179 36.7434 127.336 33.4154C130.536 30.0448 134.035 28.3594 137.832 28.3594C139.283 28.3594 140.605 28.6154 141.8 29.1274C142.995 29.6394 143.827 30.1301 144.296 30.5994C144.765 31.0261 145.149 31.4528 145.448 31.8794ZM133.8 45.1914C133.8 46.5994 134.355 47.8794 135.464 49.0314C136.573 50.1408 137.917 50.6954 139.496 50.6954C141.075 50.6954 142.376 50.1194 143.4 48.9674C144.467 47.8154 145 46.5568 145 45.1914C145 43.7834 144.488 42.4821 143.464 41.2874C142.483 40.0928 141.139 39.4954 139.432 39.4954C137.768 39.4954 136.403 40.0928 135.336 41.2874C134.312 42.4821 133.8 43.7834 133.8 45.1914Z" fill="#FF7223"/>
<path d="M203.072 41.1594C203.072 43.7621 202.411 45.7034 201.088 46.9834C199.808 48.2208 198.379 48.8394 196.8 48.8394H181.632C181.632 50.0341 182.336 51.0368 183.744 51.8474C185.152 52.6581 186.56 53.0634 187.968 53.0634C190.443 53.0634 192.384 52.8074 193.792 52.2954L194.496 52.0394C195.52 51.5701 196.373 51.3354 197.056 51.3354C198.421 51.3354 199.595 52.2954 200.576 54.2154C201.131 55.3674 201.408 56.3488 201.408 57.1594C201.408 60.9568 196.864 62.8554 187.776 62.8554C184.619 62.8554 181.803 62.3221 179.328 61.2554C176.896 60.1461 174.997 58.6954 173.632 56.9034C170.944 53.4474 169.6 49.5861 169.6 45.3194C169.6 39.9434 171.328 35.6554 174.784 32.4554C178.283 29.2128 182.635 27.5914 187.84 27.5914C193.771 27.5914 198.123 29.6821 200.896 33.8634C202.347 36.0821 203.072 38.5141 203.072 41.1594ZM189.568 43.0154C191.189 43.0154 192 42.3328 192 40.9674C192 39.9861 191.616 39.1968 190.848 38.5994C190.123 38.0021 189.056 37.7034 187.648 37.7034C186.283 37.7034 184.917 38.2794 183.552 39.4314C182.187 40.5408 181.504 41.7354 181.504 43.0154H189.568Z" fill="#C61FA1"/>
<path d="M181.932 23.8824C181.648 23.971 181.416 24.018 181.235 24.0232C181.055 24.0285 180.872 23.9372 180.686 23.7495C180.516 23.5774 180.313 23.2776 180.076 22.85L177.394 17.6905C177.124 17.1352 176.993 16.7045 177 16.3986C177.008 16.0927 177.121 15.8159 177.34 15.5682C177.56 15.3205 177.929 15.0363 178.448 14.7155C179.457 14.1392 180.175 13.9736 180.603 14.2187C180.756 14.3108 180.863 14.3881 180.925 14.4507C181.079 14.6071 181.504 15.351 182.201 16.6824C182.897 18.0138 183.434 19.0441 183.814 19.7732C184.194 20.5023 184.416 20.9464 184.48 21.1054C184.659 21.6312 184.595 22.0675 184.288 22.4143C183.98 22.7611 183.589 23.0701 183.114 23.3413C182.64 23.6125 182.245 23.7928 181.932 23.8824Z" fill="#FEE400"/>
<path d="M196.068 23.8824C196.352 23.971 196.584 24.018 196.765 24.0232C196.945 24.0285 197.128 23.9372 197.314 23.7495C197.484 23.5774 197.687 23.2776 197.924 22.85L200.606 17.6905C200.876 17.1352 201.007 16.7045 201 16.3986C200.992 16.0927 200.879 15.8159 200.66 15.5682C200.44 15.3205 200.071 15.0363 199.552 14.7155C198.543 14.1392 197.825 13.9736 197.397 14.2187C197.244 14.3108 197.137 14.3881 197.075 14.4507C196.921 14.6071 196.496 15.351 195.799 16.6824C195.103 18.0138 194.566 19.0441 194.186 19.7732C193.806 20.5023 193.584 20.9464 193.52 21.1054C193.341 21.6312 193.405 22.0675 193.712 22.4143C194.02 22.7611 194.411 23.0701 194.886 23.3413C195.36 23.6125 195.755 23.7928 196.068 23.8824Z" fill="#FEE400"/>
<path d="M189.887 21.8546C190.179 21.8 190.406 21.7325 190.569 21.652C190.733 21.5716 190.857 21.4039 190.942 21.1489C191.019 20.9151 191.072 20.5516 191.099 20.0583L191.272 14.1874C191.274 13.5644 191.206 13.118 191.067 12.8484C190.929 12.5787 190.709 12.385 190.406 12.2674C190.103 12.1498 189.652 12.0701 189.05 12.0283C187.902 11.9896 187.189 12.1805 186.913 12.6009C186.816 12.7552 186.753 12.8749 186.725 12.9599C186.655 13.1724 186.595 14.037 186.547 15.5538C186.499 17.0706 186.462 18.244 186.437 19.074C186.412 19.904 186.405 20.4051 186.416 20.5774C186.483 21.1311 186.728 21.4903 187.152 21.655C187.575 21.8197 188.057 21.9112 188.598 21.9294C189.139 21.9476 189.568 21.9227 189.887 21.8546Z" fill="#FEE400"/>
</svg>
