<svg xmlns="http://www.w3.org/2000/svg" width="150" height="150" viewBox="0 0 150 150" fill="none"><path d="M84.0398 21.8296H65.957V12.7943C65.957 7.80313 70.0048 3.75781 74.999 3.75781C79.9921 3.75781 84.0398 7.80313 84.0398 12.7943V21.8296Z" fill="#FFE7BF"></path><path d="M84.04 12.7943V21.8285H78.6064V12.7943C78.6064 10.2999 77.5947 8.03874 75.9582 6.40437C74.9409 5.38761 73.6843 4.61445 72.2812 4.17412C73.1384 3.90192 74.0528 3.75781 74.9981 3.75781C77.4952 3.75781 79.7565 4.76886 81.393 6.40437C83.0284 8.03874 84.04 10.2999 84.04 12.7943Z" fill="#F7DE92"></path><path d="M89.4978 49.1336H60.503C52.681 49.1336 46.3398 42.7962 46.3398 34.979C46.3398 27.1617 52.681 20.8243 60.503 20.8243H89.4978C97.3198 20.8243 103.661 27.1617 103.661 34.979C103.661 42.7962 97.3198 49.1336 89.4978 49.1336Z" fill="#03CB8F"></path><path d="M103.661 34.9777C103.661 38.8881 102.077 42.4245 99.5137 44.9887C96.9502 47.5506 93.4117 49.1346 89.4978 49.1346H79.8516C83.762 49.1346 87.3028 47.5506 89.8663 44.9887C92.4298 42.4245 94.0148 38.8881 94.0148 34.9777C94.0148 27.1627 87.6747 20.8231 79.8527 20.8231H89.4989C97.321 20.8231 103.661 27.1627 103.661 34.9777Z" fill="#07B681"></path><path d="M103.069 76.752H46.9327C39.1107 76.752 32.7695 70.4136 32.7695 62.5974C32.7695 54.779 39.1107 48.4417 46.9327 48.4417H103.069C110.893 48.4417 117.233 54.7801 117.233 62.5974C117.233 70.4136 110.893 76.752 103.069 76.752Z" fill="#FEE400"></path><path opacity="0.2" d="M117.233 62.5951C117.233 66.5032 115.648 70.043 113.084 72.6049C110.522 75.1657 106.98 76.7509 103.069 76.7509H94.0273C97.9401 76.7509 101.479 75.1668 104.042 72.6049C106.606 70.043 108.191 66.5032 108.191 62.5951C108.191 54.7813 101.851 48.4417 94.0273 48.4417H103.07C110.89 48.4405 117.233 54.7801 117.233 62.5951Z" fill="#EA9009"></path><path d="M115.101 104.469H34.8976C27.0755 104.469 20.7344 98.1314 20.7344 90.3142C20.7344 82.4969 27.0767 76.1595 34.8976 76.1595H115.101C122.923 76.1595 129.264 82.4969 129.264 90.3142C129.264 98.1314 122.923 104.469 115.101 104.469Z" fill="#C61FA1"></path><path d="M129.266 90.3131C129.266 94.2211 127.681 97.7598 125.117 100.322C122.554 102.884 119.015 104.468 115.102 104.468H106.754C110.663 104.468 114.205 102.884 116.769 100.322C119.332 97.7609 120.917 94.2211 120.917 90.3131C120.917 82.4981 114.577 76.1584 106.754 76.1584H115.102C122.924 76.1584 129.266 82.4981 129.266 90.3131Z" fill="#B1108D"></path><path d="M145.144 149.999H4.85573C2.17438 149.999 0 147.826 0 145.146V136.011C0 133.33 2.17438 131.157 4.85573 131.157H145.144C147.826 131.157 150 133.33 150 136.011V145.146C150 147.826 147.826 149.999 145.144 149.999Z" fill="#FFE7E0"></path><path d="M150.001 136.011V145.145C150.001 147.828 147.826 150 145.146 150H137.598C140.279 150 142.452 147.828 142.452 145.145V136.011C142.452 133.333 140.279 131.156 137.598 131.156H145.146C147.826 131.156 150.001 133.331 150.001 136.011Z" fill="#F7DE92"></path><path d="M125.593 131.761H24.4093C16.5873 131.761 10.2461 125.424 10.2461 117.607C10.2461 109.789 16.5873 103.452 24.4093 103.452H125.593C133.415 103.452 139.757 109.789 139.757 117.607C139.757 125.424 133.415 131.761 125.593 131.761Z" fill="#FE4848"></path><path d="M139.756 117.605C139.756 121.516 138.171 125.052 135.607 127.614C133.044 130.176 129.503 131.76 125.593 131.76H116.551C120.464 131.76 124.002 130.176 126.566 127.614C129.129 125.052 130.714 121.516 130.714 117.605C130.714 109.79 124.374 103.451 116.551 103.451H125.594C133.414 103.451 139.756 109.79 139.756 117.605Z" fill="#EE2A2A"></path></svg>